<?xml version="1.0" standalone="no"?><!DOCTYPE svg PUBLIC "-//W3C//DTD SVG 1.1//EN" "http://www.w3.org/Graphics/SVG/1.1/DTD/svg11.dtd"><svg t="1747450331326" class="icon" viewBox="0 0 1174 1024" version="1.1" xmlns="http://www.w3.org/2000/svg" p-id="4573" xmlns:xlink="http://www.w3.org/1999/xlink" width="229.296875" height="200"><path d="M101.180768 799.290506c20.375213-121.66913 150.776578-187.451961 231.113132-173.480387 22.12166 3.492894 36.093235 26.778852 33.18249 42.496874-3.492894 20.957362-30.853894 40.168277-58.797043 35.511085-60.543491-10.478681-141.462194 26.778852-149.030131 112.354747-5.239341 61.12564 47.154065 125.744173 107.697555 136.222854 60.543491 10.478681 130.983513-40.168277 140.880046-100.711768L422.526987 174.644684c3.492894-22.12166 9.896532-41.332575 32.018192-44.825469L1096.07332 18.046617c20.375213-3.492894 41.332575 6.403638 52.393406 24.450256 6.985787 11.06083 8.732234 24.450256 6.403638 37.257533l-14.553723 675.29278c-16.882319 98.383172-78.590108 153.105173-172.898238 164.166003-144.955088 17.464468-267.206367-142.626492-192.691302-291.074474 49.482661-98.965321 140.880045-114.683343 208.991472-101.293917 24.450256 4.657192 44.24332 17.464468 39.586129 41.914724-4.657192 28.525298-29.107447 30.271745-57.050597 25.614554-60.543491-10.478681-132.72996 47.154065-143.208641 107.697556-12.225128 70.440023 45.407618 141.462194 106.533257 147.865832 87.322342 8.732234 131.565662-45.989767 142.044344-106.533257l8.150085-639.781694L488.309818 195.602047l-13.389425 668.306992c-19.793064 117.594088-121.66913 167.658897-221.216601 151.358727C144.841939 996.05685 84.298448 900.584423 101.180768 799.290506z" p-id="4574"></path><path d="M291.543474 1024c-12.807277 0-25.614554-1.164298-38.421831-3.492894C144.841939 1002.460489 77.312661 906.988061 95.359278 798.708357l5.82149 1.164298-5.82149-1.164298c9.314383-56.468448 43.661171-106.533258 95.472428-141.462194 45.407618-30.271745 100.129619-44.24332 142.044343-37.257533 11.642979 1.746447 22.12166 8.732234 29.689597 19.210915 6.985787 9.314383 9.896532 20.375213 8.732234 29.689597-2.328596 12.225128-10.478681 23.285958-22.703809 31.436043-12.807277 8.150085-28.525298 11.06083-42.496873 8.732234-33.18249-5.821489-71.022172 4.075043-97.801024 25.032405-18.046617 13.971575-40.168277 39.586128-44.24332 82.083001-5.239341 58.214895 43.661171 119.922683 103.040364 129.819216 56.468448 9.314383 124.579875-38.421831 134.476407-96.054577l15.718022-676.457077v-0.582149c2.910745-15.718022 7.567936-44.825469 36.675384-49.482661L1095.491172 12.225128c23.285958-3.492894 45.989767 6.985787 58.797043 27.361 6.985787 11.642979 9.896532 26.196703 7.567937 40.750427L1146.13813 755.047186v0.582149c-16.882319 98.383172-78.007959 157.180216-178.137578 168.823195-70.440023 8.150085-140.880045-24.450256-183.959068-85.575896-44.825469-63.454235-50.06481-143.79079-14.553724-214.230813 62.289937-123.415577 180.466174-111.190449 215.395111-104.204661 32.600341 6.403638 48.318363 23.868107 44.24332 48.900511-6.985787 39.586128-48.318363 32.600341-64.036384 30.271746-26.778852-4.657192-58.214895 4.657192-86.158044 26.196702-26.778852 20.375213-45.989767 49.482661-50.646959 76.843662-5.239341 31.436043 4.075043 66.36498 25.614554 94.308129 20.375213 26.196703 48.318363 43.661171 76.261512 46.571916 85.575895 8.732234 126.326322-46.571916 135.640705-101.293917l8.150085-632.213758L494.131308 200.259238l-12.807277 663.649801v0.582149c-9.896532 57.050597-38.421831 101.876066-83.2473 129.819216-31.436043 19.793064-68.111427 29.689596-106.533257 29.689596z m18.628766-394.114838c-35.511086 0-77.42581 13.389426-112.936896 37.257533-49.482661 32.600341-81.500853 80.336555-90.815236 133.312109-17.464468 101.876066 46.571916 191.527004 148.447982 208.409323 49.482661 8.150085 97.801023-0.582149 136.222854-24.450255 41.914724-26.196703 68.693576-68.111427 78.007959-121.669131L482.488329 190.362706l603.10631-94.890278-8.732234 647.34963c-10.478681 59.961342-54.722001 121.086981-148.447982 111.772598-31.436043-3.492894-61.707789-22.12166-84.411597-51.229107-23.285958-30.853894-33.764639-68.693576-27.361001-103.040364 5.239341-30.271745 25.614554-61.707789 54.722001-83.829449 30.271745-23.285958 64.618533-33.18249 94.890279-28.525298 32.600341 5.821489 47.154065 0 50.646958-20.375213 2.910745-18.628766-8.732234-30.271745-34.928936-35.511086-32.600341-6.403638-144.372939-18.046617-202.587834 98.383172-33.764639 66.947129-28.525298 142.626492 13.389425 202.587834 40.168277 57.632746 106.533258 88.48664 172.898238 80.336555 93.725981-11.06083 151.940875-66.36498 167.658897-158.926663l15.135873-674.710631v-0.582149c1.746447-12.225128 0-23.868107-5.82149-33.18249a45.989767 45.989767 0 0 0-46.571916-21.539511L455.127328 135.640705c-17.464468 2.910745-23.285958 16.300171-27.361 39.586128L412.630455 851.683911v0.582149c-11.06083 64.036384-83.829449 116.42979-147.865833 105.951109-64.618533-11.06083-118.176236-78.590108-112.354747-142.626492 3.492894-37.257533 19.793064-68.693576 48.318363-90.233087 29.689596-22.703809 70.440023-33.18249 107.115406-27.361001 11.642979 1.746447 23.868107-0.582149 34.346788-6.985787 9.896532-5.821489 16.300171-14.553724 17.464469-23.285958 1.164298-5.821489-1.164298-13.971575-6.403639-20.957362-5.821489-7.567936-13.389426-12.807277-22.12166-14.553724-6.403638-1.746447-13.389426-2.328596-20.957362-2.328596zM289.214878 199.677089H41.801575c-19.210915 0-34.928937-15.718022-34.928937-34.928937s15.718022-34.928937 34.928937-34.928937h247.413303c19.210915 0 34.928937 15.718022 34.928937 34.928937s-15.718022 34.928937-34.928937 34.928937z" p-id="4575"></path><path d="M289.214878 205.498579H41.801575c-22.703809 0-40.750426-18.046617-40.750426-40.750427s18.046617-40.750426 40.750426-40.750426h247.413303c22.703809 0 40.750426 18.046617 40.750427 40.750426s-18.046617 40.750426-40.750427 40.750427z m-247.413303-69.857874c-16.300171 0-29.107447 12.807277-29.107447 29.107447s12.807277 29.107447 29.107447 29.107448h247.413303c16.300171 0 29.107447-12.807277 29.107448-29.107448s-12.807277-29.107447-29.107448-29.107447H41.801575z" p-id="4576"></path><path d="M200.728238 40.750426v247.413303c0 19.210915-15.718022 34.928937-34.928937 34.928937s-34.928937-15.718022-34.928937-34.928937V40.750426c0-19.210915 15.718022-34.928937 34.928937-34.928937s34.928937 15.718022 34.928937 34.928937z" p-id="4577"></path><path d="M165.799301 328.914156c-22.703809 0-40.750426-18.046617-40.750426-40.750427V40.750426c0-22.703809 18.046617-40.750426 40.750426-40.750426s40.750426 18.046617 40.750427 40.750426v247.413303c0 22.703809-18.628766 40.750426-40.750427 40.750427z m0-317.271177c-16.300171 0-29.107447 12.807277-29.107447 29.107447v247.413303c0 16.300171 12.807277 29.107447 29.107447 29.107448s29.107447-12.807277 29.107448-29.107448V40.750426c0-15.718022-13.389426-29.107447-29.107448-29.107447z" p-id="4578"></path></svg>