<?xml version="1.0" standalone="no"?><!DOCTYPE svg PUBLIC "-//W3C//DTD SVG 1.1//EN" "http://www.w3.org/Graphics/SVG/1.1/DTD/svg11.dtd"><svg t="1749020157981" class="icon" viewBox="0 0 1024 1024" version="1.1" xmlns="http://www.w3.org/2000/svg" p-id="983" xmlns:xlink="http://www.w3.org/1999/xlink" width="200" height="200"><path d="M736 320H256a64 64 0 0 0-64 64v320a96 96 0 0 0 96 96h448a96 96 0 0 0 96-96v-288a96 96 0 0 0-96-96zM256 384h480a32 32 0 0 1 32 32v288a32 32 0 0 1-32 32H288a32 32 0 0 1-32-32V384z" fill="#2c2c2c" p-id="984"></path><path d="M448 224h-128a128 128 0 0 0-128 128v32h352v-64a96 96 0 0 0-96-96z m0 64l3.744 0.224A32 32 0 0 1 480 320H264.576l1.728-2.848A63.936 63.936 0 0 1 320 288h128z" fill="#2c2c2c" p-id="985"></path></svg>