<?xml version="1.0" standalone="no"?><!DOCTYPE svg PUBLIC "-//W3C//DTD SVG 1.1//EN" "http://www.w3.org/Graphics/SVG/1.1/DTD/svg11.dtd"><svg t="1747450379621" class="icon" viewBox="0 0 1024 1024" version="1.1" xmlns="http://www.w3.org/2000/svg" p-id="4726" xmlns:xlink="http://www.w3.org/1999/xlink" width="200" height="200"><path d="M471.978667 368c-35.328 0-64-28.672-64-64 0-5.12-1.066667-7.68-4.693333-11.306667C399.701333 289.066667 397.098667 288 392.021333 288L272 288c-5.12 0-7.68 1.066667-11.306667 4.693333C257.066667 296.32 256 298.88 256 304l0 416c0 5.12 1.066667 7.68 4.693333 11.306667 3.626667 3.626667 6.186667 4.693333 11.306667 4.693333l480 0c5.12 0 7.68-1.066667 11.306667-4.693333 3.626667-3.626667 4.693333-6.186667 4.693333-11.306667L768 384c0-5.12-1.066667-7.68-4.693333-11.306667-3.626667-3.626667-6.186667-4.693333-11.306667-4.693333L471.978667 368zM752 304c22.101333 0 40.917333 7.808 56.576 23.424C824.192 343.082667 832 361.898667 832 384l0 336c0 22.101333-7.808 40.917333-23.424 56.576s-34.474667 23.424-56.576 23.424L272 800c-22.101333 0-40.917333-7.808-56.576-23.424S192 742.101333 192 720l0-416c0-22.101333 7.808-40.917333 23.424-56.576C231.082667 231.808 249.898667 224 272 224l119.978667 0c22.101333 0 40.917333 7.808 56.576 23.424 15.616 15.616 23.424 34.474667 23.424 56.576L752 304zM224 448l576 0L800 512 224 512 224 448z" fill="#98A4AE" p-id="4727"></path></svg>