<?xml version="1.0" standalone="no"?><!DOCTYPE svg PUBLIC "-//W3C//DTD SVG 1.1//EN" "http://www.w3.org/Graphics/SVG/1.1/DTD/svg11.dtd"><svg t="1749311541207" class="icon" viewBox="0 0 2386 1024" version="1.1" xmlns="http://www.w3.org/2000/svg" p-id="7165" xmlns:xlink="http://www.w3.org/1999/xlink" width="466.015625" height="200"><path d="M2298.836 206.54h-356.103l-81.31 74.385c-6.635-42.824-43.513-74.408-86.848-74.385h-310.6v-38.38c-2.433-49.545-44.571-87.736-94.117-85.303a90.5 90.5 0 0 0-3.418 0.232 96.546 96.546 0 0 0-71.617 27.302 81.797 81.797 0 0 0-12.463 16.026 91.005 91.005 0 0 0-75.572-41.743h-90.013V0H923.688v84.475H745.637v14.441a92.191 92.191 0 0 0-50.25-15.233H436.82a115.287 115.287 0 0 0-21.365-2.572V0h-193.68v81.31h-89.62v187.743h33.435L0 424.158v261.734l222.563-207.727v245.118H413.67V608.341l41.545 39.566v75.97h328.009V390.724h6.725v332.36h294.38a254.847 254.847 0 0 0 102.674-24.332 187.157 187.157 0 0 0 83.882-76.758v100.895h387.16v174.687l126.418 126.417 602.013-563.435V292.795c0.564-47.087-37.15-85.718-84.24-86.281a77.554 77.554 0 0 0-3.4 0.026m69.44 246.106l-583.412 545.825-77.157-76.957-21.959-22.158-9.297-9.102V704.685h-388.155V556.707h486.08c37.133-1.094 68.121 28.117 69.218 65.25 0.027 0.935 0.037 1.87 0.024 2.804v109.404l366.587-341.857v-19.785h-197.833l-199.616 182.603v-52.427a71.618 71.618 0 0 1-59.35 36.799h-444.138V391.715h442.556a71.409 71.409 0 0 1 60.932 36.205v-67.462a74.19 74.19 0 0 1-36.994 12.069h-487.466v-11.475a75.197 75.197 0 0 1-36.4 11.475h-42.337a173.298 173.298 0 0 1 66.669 145.605c3.99 69.88-35.274 135.062-98.916 164.203a233.255 233.255 0 0 1-93.773 22.357H806.572V372.523h-43.524v332.361h-289.63v-65.482l-77.75-73.398V704.49H240.963V435.235L18.2 643.754V432.069l193.68-181.415h-61.33V98.914h89.424a42.44 42.44 0 0 1 0-4.946V18.2H396.66v81.114h13.454a83.948 83.948 0 0 1 25.124 3.56h260.153c33.7-0.951 62.927 23.126 68.453 56.384v-56.384h178.051a62.072 62.072 0 0 1 0-8.31v-75.77h156.686v74.584a47.85 47.85 0 0 1 0 9.496h108.217c38.678 0.07 69.977 31.482 69.907 70.16a71.536 71.536 0 0 1-0.073 3.039 73.404 73.404 0 0 1-16.814 49.26 74.173 74.173 0 0 1 28.488 10.684V169.94a67.644 67.644 0 0 1 19.785-46.69 79.132 79.132 0 0 1 59.35-21.958c39.689-3.905 75.029 25.104 78.933 64.793 0.08 0.822 0.15 1.647 0.2 2.473v56.185h328.008c38.678 0.07 69.977 31.481 69.907 70.159a71.535 71.535 0 0 1-0.073 3.04 87.942 87.942 0 0 1-4.55 27.497l109.005-100.5h349.968c37.13-1.204 68.204 27.918 69.407 65.047 0.03 0.935 0.04 1.873 0.033 2.808v159.851z m-1077.408-61.922v84.08a191.117 191.117 0 0 0-36.798-84.475 74.707 74.707 0 0 0 15.827-2.373v2.373l20.971 0.395z m543.253 169.741l184.976-169.347h165.784l-322.864 301.303V625.16a83.09 83.09 0 0 0-27.896-64.296" fill="#009AB4" p-id="7166"></path><path d="M975.916 219.397h89.224v42.93h-89.224zM931.603 479.75h142.44c19.775 0.11 35.718 16.228 35.609 36.006a35.544 35.544 0 0 1-0.2 3.564c1.23 20.613-14.484 38.32-35.097 39.549a9.804 9.804 0 0 1-0.312 0.016h-142.44v32.841h156.487c36.165-0.315 65.224-29.89 64.91-66.052a65.42 65.42 0 0 0-0.216-4.77c2.956-36.483-24.22-68.456-60.703-71.412a66.865 66.865 0 0 0-3.99-0.202H931.602v30.46z" fill="#FFFFFF" p-id="7167"></path><path d="M2298.836 224.94h-349.573l-109.404 100.5a88.708 88.708 0 0 0 4.153-27.302c1.747-38.638-28.157-71.379-66.795-73.126a71.406 71.406 0 0 0-3.04-0.073h-328.996v-56.384c-2.539-39.798-36.861-70.003-76.662-67.464-0.826 0.053-1.651 0.12-2.473 0.199a79.145 79.145 0 0 0-59.35 21.959 67.67 67.67 0 0 0-19.785 46.688v66.275a74.173 74.173 0 0 0-28.489-10.683 73.384 73.384 0 0 0 16.815-49.26c1.757-38.639-28.14-71.386-66.778-73.143a70.285 70.285 0 0 0-1.671-0.056h-109.006a47.85 47.85 0 0 0 0-9.497V18.4H941.888v75.77a62.072 62.072 0 0 0 0 8.31H763.84v56.779c-5.522-33.258-34.75-57.332-68.452-56.384H435.235a83.888 83.888 0 0 0-25.522-3.958h-14.047V18.4H239.974v75.77a42.44 42.44 0 0 0 0 4.946h-89.423v150.949h61.329L18.2 432.069v211.685l222.762-208.52v269.65h154.707V566.4l77.945 73.397v65.483h291.214V372.523h43.523V704.69h276.968a233.255 233.255 0 0 0 93.773-22.357c63.642-29.138 102.907-94.32 98.916-164.203a173.292 173.292 0 0 0-66.67-145.606h42.338a75.151 75.151 0 0 0 36.4-11.475v11.475h485.683a74.19 74.19 0 0 0 36.993-12.068v67.66a71.422 71.422 0 0 0-60.931-36.205h-442.553V539.89h443.544a71.618 71.618 0 0 0 59.35-36.799v52.43l199.418-182.403h197.836V392.9L1843.62 734.165V624.761c0.454-37.146-29.29-67.627-66.437-68.077a71.903 71.903 0 0 0-2.804 0.023H1288.3v147.978h388.151v185.57l9.297 9.297 21.96 22.157 77.156 76.958 583.412-545.825V292.795c0.348-37.146-29.486-67.54-66.633-67.889-0.934-0.01-1.872 0-2.807 0.033m-976.314 368.563h451.854c18.671-0.657 34.34 13.95 34.996 32.622 0.013 0.338 0.02 0.672 0.02 1.01v152.928l-89.42 84.673V672.637h-397.45v-79.135z m922.108-183.786v-68.253h-246.5l-151.543 138.485V368.765l115.536-106.434h336.318c18.645-1.207 34.737 12.93 35.944 31.578 0.06 0.948 0.082 1.896 0.063 2.847v145.012L1785.653 953.76l-59.35-59.35 518.327-484.695zM1242.005 521.294c0 152.135-158.267 152.135-158.267 152.135h-241.16V367.774h241.754s158.267 1.186 158.267 153.52M755.53 341.264v-79.132h132.748v-42.735h-90.014v-79.131h408.53c19.884 0.122 35.906 16.34 35.787 36.224a36.26 36.26 0 0 1-0.176 3.341c1.223 20.614-14.494 38.317-35.108 39.54l-0.5 0.026h-53.613v42.93h97.73c19.774 0.11 35.717 16.229 35.608 36.007a35.544 35.544 0 0 1-0.199 3.563c1.23 20.613-14.484 38.32-35.098 39.549a9.804 9.804 0 0 1-0.311 0.017l-495.384-0.2zM1064.153 55.79v41.15s0 33.828-43.524 33.828-44.71-33.828-44.71-33.828V55.79h88.234z m258.37 285.473V172.513s-0.395-34.027 43.523-34.027 44.909 33.828 44.909 33.828v89.62h363.62c19.884 0.118 35.907 16.337 35.788 36.224a36.26 36.26 0 0 1-0.176 3.341c1.223 20.613-14.495 38.316-35.111 39.54l-0.5 0.026-452.054 0.199zM52.624 449.875l246.106-230.478H184.777v-82.496h224.939c21.77-1.88 40.945 14.25 42.82 36.02a40.17 40.17 0 0 1 0.11 5.13c0 18.2-23.543 38.38-23.543 38.38L52.625 567.784V449.875z m309.61-394.084v41.15s0 33.828-43.524 33.828-44.909-33.831-44.909-33.831V55.79h88.433z m368.367 118.697v499.137h-89.42V218.608H463.13v-79.135h232.258c18.78-0.66 34.541 14.034 35.197 32.814l0.017 0.62m-134.33 96.543v404.175h-88.63V270.243s0-30.269 45.107-30.269 43.524 30.269 43.524 30.269m-98.917-38.578v114.942l-46.49 41.942c-16.476 14.352-41.472 12.632-55.824-3.845a38.499 38.499 0 0 1-1.547-1.892 44.707 44.707 0 0 1 6.33-59.35l97.531-91.797z m-136.308 441.96h-85.86V396.657c-0.941-24.455 18.12-45.045 42.579-45.987a44.329 44.329 0 0 1 31.81 11.76c5.538 5.54 101.29 95.556 101.29 95.556V573.72l-89.819-84.673v184.578z m982.645-165.387v-79.135h408.131c19.775 0.11 35.718 16.228 35.609 36.006a35.544 35.544 0 0 1-0.2 3.563c1.44 20.381-13.92 38.068-34.302 39.506a41.531 41.531 0 0 1-1.11 0.063h-408.128z" fill="#FFFFFF" p-id="7168"></path><path d="M2334.448 440.777V296.753c-0.206-18.681-15.52-33.66-34.203-33.454l-0.816 0.02h-336.318l-115.536 106.433V481.33l151.542-138.485h245.907v68.846l-519.116 482.322 59.35 59.35 549.19-512.586zM318.71 130.769c44.117 0 43.524-33.828 43.524-33.828V55.59H274v41.347s0 33.828 44.91 33.828m133.735 47.286c1.064-21.827-15.767-40.385-37.594-41.45a39.821 39.821 0 0 0-5.336 0.1h-224.94v82.496h113.952L52.622 449.872v118.7L428.51 217.224s23.543-19.785 23.543-38.38m-1.187 279.143s-94.763-90.014-101.29-95.555c-17.961-16.626-45.999-15.546-62.625 2.416a44.316 44.316 0 0 0-11.76 31.81v276.968h85.86V489.44l89.819 84.276V457.986z m-58.164-75.178c13.308 17.332 38.148 20.594 55.48 7.286a42.308 42.308 0 0 0 1.892-1.548l46.49-41.943V231.665l-97.53 91.004a44.707 44.707 0 0 0-6.332 59.35" fill="#E3007F" p-id="7169"></path><path d="M463.525 140.266V219.4h178.051V674.42h89.42V173.7c-0.315-18.79-15.804-33.766-34.594-33.451l-0.62 0.017H463.525z" fill="#E3007F" p-id="7170"></path><path d="M507.645 270.243v403.385h88.631V270.243s1.78-30.269-43.523-30.269c-45.307 0-45.108 30.269-45.108 30.269m1213.513 595.086l89.225-84.674V627.728c0.258-18.681-14.68-34.034-33.361-34.293-0.882-0.013-1.764 0.01-2.646 0.067h-451.854v79.135h398.636v192.692z m89.026-564.224c1.965-19.788-12.48-37.425-32.268-39.39a36.32 36.32 0 0 0-3.34-0.176h-363.82v-89.026s-0.593-34.027-44.71-34.027-43.524 33.828-43.524 33.828v168.754h452.053c20.63-0.948 36.583-18.439 35.639-39.065a25.3 25.3 0 0 0-0.027-0.5m-22.95 166.771c2.075-19.668-12.184-37.292-31.85-39.37a35.545 35.545 0 0 0-3.563-0.199h-408.131v79.135h408.131c20.415-0.822 36.298-18.04 35.476-38.455a41.531 41.531 0 0 0-0.063-1.11m-766.608-337.506c44.117 0 43.524-33.828 43.524-33.828V55.59h-88.234v41.347c-0.003 0-0.003 33.831 44.71 33.831M842.578 367.774v304.863h241.754s158.267 0 158.267-152.135-158.267-153.52-158.267-153.52l-241.754 0.792zM1152.979 520.9c2.95 36.045-23.878 67.656-59.92 70.606a65.396 65.396 0 0 1-4.969 0.22H931.603v-32.842h142.44c20.623-1.057 36.487-18.63 35.43-39.254l-0.017-0.311c2.075-19.666-12.184-37.293-31.85-39.37a35.545 35.545 0 0 0-3.563-0.2h-142.44v-30.467h156.487c36.596 0.756 65.648 31.03 64.896 67.627a66.864 66.864 0 0 1-0.202 3.99m133.14-219.794c2.074-19.67-12.185-37.293-31.85-39.37a35.545 35.545 0 0 0-3.564-0.2h-97.335v-42.138h53.613c20.63-0.948 36.583-18.439 35.638-39.065a25.3 25.3 0 0 0-0.026-0.5c1.965-19.788-12.48-37.425-32.268-39.39a36.32 36.32 0 0 0-3.34-0.176h-408.53V219.4h89.42v42.73H754.934v79.136h495.97c20.624-1.057 36.487-18.631 35.43-39.254l-0.016-0.312m-221.178-39.57h-89.224v-42.734h89.224v42.735z" fill="#E3007F" p-id="7171"></path><path d="M299.719 774.523h-33.828v33.434h-9.102v-33.434h-49.261v114.15h49.26v-38.976h9.103v38.976h49.26v-114.15z" fill="#FFFFFF" p-id="7172"></path><path d="M281.32 823.585v-33.633h18.399v83.289h-18.4v-38.973h-40.158v38.973h-18.2v-83.289h18.2v33.633z" fill="#E3007F" p-id="7173"></path><path d="M375.884 774.523h-22.75l-54.602 114.15h51.041l10.09-24.73h10.882c2.77 7.123 9.297 24.73 9.297 24.73h54.007l-47.083-114.15h-10.882z" fill="#FFFFFF" p-id="7174"></path><path d="M375.884 789.952l34.226 83.289h-19.784l-9.298-24.73H348.98l-9.89 24.73h-16.027l39.566-83.289h13.255z m1.187 48.668l-11.67-31.654-12.861 31.654h24.53z" fill="#E3007F" p-id="7175"></path><path d="M504.675 774.523H405.56v41.94h32.446v72.21h49.46v-72.21h32.641v-41.94z" fill="#FFFFFF" p-id="7176"></path><path d="M504.675 789.952v11.08h-32.642v72.209h-18.4v-72.208h-32.64v-11.08z" fill="#E3007F" p-id="7177"></path><path d="M504.675 812.703a34.226 34.226 0 0 0 11.67 26.51c0 1.386-1.186 3.365-1.186 3.365l-3.166 1.78a16.62 16.62 0 0 0-8.903 15.233v1.979l1.187 9.695a17.61 17.61 0 0 0 13.65 15.433 110.448 110.448 0 0 0 27.497 3.56 53.819 53.819 0 0 0 33.828-11.078 39.563 39.563 0 0 0 14.243-30.467 33.842 33.842 0 0 0-16.026-29.281v-0.988l3.166-1.58a17.017 17.017 0 0 0 9.101-15.234 7.604 7.604 0 0 0 0-1.98v-8.309a17.017 17.017 0 0 0-10.288-12.86 81.648 81.648 0 0 0-25.522-3.958c-28.883 0-49.062 16.222-49.062 39.566" fill="#FFFFFF" p-id="7178"></path><path d="M575.301 801.033v1.979l-2.966 1.78h-0.988c-0.988 0-3.759-2.374-4.352-2.771a36.36 36.36 0 0 0-15.234-3.76c-8.902 0-14.047 4.154-14.047 10.485s3.958 8.508 17.408 14.64c13.454 6.132 24.333 11.078 24.333 24.926 0 13.848-13.255 26.115-33.235 26.115a102.244 102.244 0 0 1-23.544-3.165c-1.78 0-1.979-0.988-2.177-2.373l-1.187-9.102v-2.178l3.165-1.78h0.988l4.352 2.572a39.582 39.582 0 0 0 19.785 5.343c11.276 0 15.233-5.936 15.233-11.475 0-5.538-5.144-8.704-16.221-13.649-11.077-4.945-25.917-11.077-25.917-26.115s13.454-24.137 33.235-24.137a69.705 69.705 0 0 1 19.785 2.966c1.187 0 1.187 1.187 1.581 2.374v7.325z" fill="#E3007F" p-id="7179"></path><path d="M681.739 774.523h-28.883v59.35a58.187 58.187 0 0 1 0 11.671 16.274 16.274 0 0 1-7.518 1.584 11.717 11.717 0 0 1-4.352 0v-72.605h-49.854v65.88a46.304 46.304 0 0 0 12.068 37.392 51.83 51.83 0 0 0 37.193 12.463 60.938 60.938 0 0 0 41.15-13.454 53.812 53.812 0 0 0 14.64-43.13l1.386-59.35-15.83 0.2z" fill="#FFFFFF" p-id="7180"></path><path d="M624.96 789.952v49.656c0 9.297 0 13.255 3.56 17.212a22.141 22.141 0 0 0 16.42 5.539 26.115 26.115 0 0 0 19.785-7.123c4.153-4.551 4.153-10.683 4.153-21.565V789.95h13.255l-0.988 43.325c0 15.233-1.186 24.53-9.496 31.853a45.522 45.522 0 0 1-30.862 9.695 37.19 37.19 0 0 1-27.497-8.31c-6.53-6.132-7.319-13.65-7.319-26.115v-50.448h18.99z" fill="#E3007F" p-id="7181"></path><path d="M793.317 774.523h-29.082v33.04l-30.269-33.04h-35.612v114.15h44.512v-34.226l34.62 37.985 31.455-8.11V774.522h-15.624z" fill="#FFFFFF" p-id="7182"></path><path d="M727.834 789.952l53.414 58.559-1.186-58.559h13.255l-0.2 82.3-10.682 2.768-56.185-61.325 0.99 59.546h-13.059l0.398-83.289z" fill="#E3007F" p-id="7183"></path><path d="M887.881 774.523h-75.97v114.15h92.984v-41.942h-5.738V815.67h4.157v-41.147z" fill="#FFFFFF" p-id="7184"></path><path d="M887.881 789.952v10.289h-42.138v23.937h37.786v10.484h-37.786v27.501h43.523v11.078h-61.723v-83.289z" fill="#E3007F" p-id="7185"></path><path d="M1059.8 774.523h-26.31l-19.785 40.557-19.785-40.557h-41.349l-7.716 114.15h45.303v-10.288l5.343 11.475 27.697-4.352s5.737-11.077 6.132-12.069v15.234h48.667l-4.153-114.15h-14.043z" fill="#FFFFFF" p-id="7186"></path><path d="M983.436 789.952l28.883 59.944 30.663-59.944h16.819l2.966 83.289h-17.607l-1.979-58.953-30.07 57.173-8.309 1.186-29.082-60.537-0.792 61.13h-13.454l5.542-83.288z" fill="#E3007F" p-id="7187"></path><path d="M1113.414 774.523h-33.633v114.15h49.26v-114.15z" fill="#FFFFFF" p-id="7188"></path><path d="M1095.21 789.952h18.2v83.289h-18.2z" fill="#E3007F" p-id="7189"></path><path d="M1222.22 774.523h-26.708l-14.64 15.827v-15.827h-49.262v114.15h49.261v-14.047c1.78 2.178 10.484 14.047 10.484 14.047h63.11l-47.677-61.724 54.405-52.426h-38.972z" fill="#FFFFFF" p-id="7190"></path><path d="M1165.442 873.24h-18.001v-83.288h18.2l-0.199 83.289z m56.779-83.288l-36.799 35.413 37.392 47.876h-23.543l-32.049-44.316 36.006-39.566 18.993 0.593z" fill="#E3007F" p-id="7191"></path><path d="M1318.17 774.523h-28.687v59.35a58.187 58.187 0 0 1 0 11.671 14.862 14.862 0 0 1-7.319 1.584 12.078 12.078 0 0 1-4.55 0v-72.605h-50.054v65.88a45.893 45.893 0 0 0 12.268 37.392 51.62 51.62 0 0 0 37.192 12.463 61.336 61.336 0 0 0 41.15-13.454 53.023 53.023 0 0 0 14.442-43.13l1.584-59.35-16.026 0.2z" fill="#FFFFFF" p-id="7192"></path><path d="M1261.392 789.952v49.656c0 9.297 0 13.255 3.56 17.212a22.357 22.357 0 0 0 16.62 5.539 25.721 25.721 0 0 0 19.784-7.123c4.153-4.551 4.153-10.683 4.153-21.565V789.95h13.255v43.325c0 15.233-1.187 24.53-9.496 31.853a45.111 45.111 0 0 1-30.663 9.695 37.597 37.597 0 0 1-26.71-8.31c-6.529-6.132-7.318-13.65-7.318-26.115v-50.448h16.815z" fill="#E3007F" p-id="7193"></path></svg>