<?xml version="1.0" standalone="no"?><!DOCTYPE svg PUBLIC "-//W3C//DTD SVG 1.1//EN" "http://www.w3.org/Graphics/SVG/1.1/DTD/svg11.dtd"><svg t="1747449743190" class="icon" viewBox="0 0 1024 1024" version="1.1" xmlns="http://www.w3.org/2000/svg" p-id="4332" xmlns:xlink="http://www.w3.org/1999/xlink" width="200" height="200"><path d="M608.64 57.6a48.192 48.192 0 0 0-51.84 8.32l-336.64 300.8H108.8c-26.24 0-48 21.76-48 48v245.12c0 26.24 21.76 48 48 48h111.36l340.48 253.44c8.32 6.4 18.56 9.6 28.8 9.6 7.04 0 14.72-1.92 21.76-5.12a48.64 48.64 0 0 0 26.24-42.88V101.12A49.408 49.408 0 0 0 608.64 57.6zM540.8 826.88L277.12 631.04l-12.8-9.6a45.44 45.44 0 0 0-28.16-9.6H156.8V462.72h81.28c11.52 0 23.04-4.48 32-12.16l270.72-241.92v618.24zM928.64 506.24l62.08-62.08c18.56-18.56 18.56-49.28 0-67.84s-49.28-18.56-67.84 0l-62.08 62.08-62.08-62.08c-18.56-18.56-49.28-18.56-67.84 0s-18.56 49.28 0 67.84l62.08 62.08-62.08 62.08c-18.56 18.56-18.56 49.28 0 67.84 9.6 9.6 21.76 14.08 33.92 14.08s24.32-4.48 33.92-14.08l62.08-62.08 62.08 62.08c9.6 9.6 21.76 14.08 33.92 14.08s24.32-4.48 33.92-14.08c18.56-18.56 18.56-49.28 0-67.84l-62.08-62.08z" p-id="4333"></path></svg>