<?xml version="1.0" standalone="no"?><!DOCTYPE svg PUBLIC "-//W3C//DTD SVG 1.1//EN" "http://www.w3.org/Graphics/SVG/1.1/DTD/svg11.dtd"><svg t="1747462536964" class="icon" viewBox="0 0 1024 1024" version="1.1" xmlns="http://www.w3.org/2000/svg" p-id="2417" xmlns:xlink="http://www.w3.org/1999/xlink" width="200" height="200"><path d="M608.352 442.176a64 64 0 0 1 33.92 9.728l163.648 102.272a64 64 0 0 1 0 108.544l-163.648 102.272a64 64 0 0 1-97.92-54.272v-204.544a64 64 0 0 1 64-64zM448 704a32 32 0 0 1 0 64H224a32 32 0 0 1 0-64h224z m160.352-197.824v204.544l163.648-102.272-163.648-102.272zM448 448a32 32 0 0 1 0 64H224a32 32 0 0 1 0-64h224z m352-256a32 32 0 0 1 0 64H224a32 32 0 1 1 0-64h576z" fill="#000000" p-id="2418"></path></svg>