<?xml version="1.0" standalone="no"?><!DOCTYPE svg PUBLIC "-//W3C//DTD SVG 1.1//EN" "http://www.w3.org/Graphics/SVG/1.1/DTD/svg11.dtd"><svg t="1747449887514" class="icon" viewBox="0 0 1024 1024" version="1.1" xmlns="http://www.w3.org/2000/svg" p-id="1086" xmlns:xlink="http://www.w3.org/1999/xlink" width="200" height="200"><path d="M1007.20164 932.508935L832.318719 757.626013c63.193829-79.492237 100.690167-180.482375 100.690167-291.071575 0-259.474661-206.479836-465.954497-465.954497-465.954497s-465.954497 211.779318-465.954496 465.954497 206.479836 465.954497 465.954496 465.954497c110.5892 0 211.579338-37.596328 291.071575-100.690167l174.882922 174.882921c10.598965 10.598965 21.19793 15.898447 37.096377 15.898448 10.598965 0 26.497412-5.299482 37.096377-15.898448 21.09794-21.29792 21.09794-53.094815 0-74.192754zM467.054389 826.619275c-195.880871 0-365.36432-158.884484-365.36432-360.064837s164.183966-360.064837 365.36432-360.064837 360.064837 164.183966 360.064838 360.064837c0 195.880871-164.083976 360.064837-360.064838 360.064837z" p-id="1087"></path></svg>