<?xml version="1.0" standalone="no"?><!DOCTYPE svg PUBLIC "-//W3C//DTD SVG 1.1//EN" "http://www.w3.org/Graphics/SVG/1.1/DTD/svg11.dtd"><svg t="1747449739691" class="icon" viewBox="0 0 1024 1024" version="1.1" xmlns="http://www.w3.org/2000/svg" p-id="4182" xmlns:xlink="http://www.w3.org/1999/xlink" width="200" height="200"><path d="M572.16 104.96a47.04 47.04 0 0 0-49.92 4.48L181.76 360.96H70.4c-26.24 0-48 21.76-48 48v245.12c0 26.24 21.76 48 48 48h111.36l344.32 203.52c7.68 4.48 16 6.4 24.32 6.4s16.64-1.92 23.68-6.4c14.72-8.32 24.32-24.32 24.32-41.6V147.84a48.64 48.64 0 0 0-26.24-42.88zM502.4 780.16L230.4 619.52l-11.52-6.4a47.744 47.744 0 0 0-24.32-6.4H118.4V456.96h78.72c10.24 0 20.48-3.2 28.8-9.6l276.48-204.8v537.6zM760.32 338.56c-18.56-18.56-49.28-18.56-67.84 0s-18.56 49.28 0 67.84c51.84 51.84 51.84 136.32 0 188.16-18.56 18.56-18.56 49.28 0 67.84 9.6 9.6 21.76 14.08 33.92 14.08s24.32-4.48 33.92-14.08c88.96-88.96 88.96-234.24 0-323.84z" p-id="4183"></path><path d="M888.32 210.56c-18.56-18.56-49.28-18.56-67.84 0s-18.56 49.28 0 67.84a314.816 314.816 0 0 1 0 444.16c-18.56 18.56-18.56 49.28 0 67.84 9.6 9.6 21.76 14.08 33.92 14.08s24.32-4.48 33.92-14.08a410.24 410.24 0 0 0 0-579.84z" p-id="4184"></path></svg>